<?xml version="1.0" standalone="no"?>
<!DOCTYPE svg PUBLIC "-//W3C//DTD SVG 20010904//EN"
 "http://www.w3.org/TR/2001/REC-SVG-20010904/DTD/svg10.dtd">
<svg version="1.0" xmlns="http://www.w3.org/2000/svg"
 width="500.000000pt" height="500.000000pt" viewBox="0 0 500.000000 500.000000"
 preserveAspectRatio="xMidYMid meet">
<metadata>
Created by potrace 1.14, written by Peter Selinger 2001-2017
</metadata>
<g transform="translate(0.000000,500.000000) scale(0.100000,-0.100000)"
fill="#000000" stroke="none">
<path d="M783 4032 l-212 -2 -1 -1705 c0 -1614 1 -1705 18 -1706 9 0 213 0
452 0 239 1 972 1 1628 2 655 0 1192 4 1193 7 1 9 1 249 0 288 l-1 31 -1027
-1 c-566 -1 -1061 0 -1101 2 l-72 4 0 1535 c1 844 -1 1537 -3 1540 -6 5 -594
9 -874 5z"/>
<path d="M2327 4032 c-15 -3 -17 -23 -17 -200 -1 -1266 0 -1755 3 -1759 6 -6
368 -5 374 1 8 7 6 1947 -2 1954 -6 6 -329 9 -358 4z"/>
</g>
</svg>
